<svg width="700" height="94" viewBox="0 0 700 94" version="1.1" xmlns="http://www.w3.org/2000/svg" xmlns:xlink="http://www.w3.org/1999/xlink">
<title>HOWWEDOIT_white</title>
<desc>Created using Figma</desc>
<g id="Canvas" transform="translate(-729 -12415)">
<g id="HOWWEDOIT_white">
<g id="Figure 1">
<use xlink:href="#path0_fill" transform="translate(729 12415)" fill="#FFFFFF"/>
</g>
</g>
</g>
<defs>
<path id="path0_fill" fill-rule="evenodd" d="M 59.3243 41.9154L 6.3253 41.9154L 6.3253 1.41146L 0 1.41146L 0 92.6569L 6.3253 92.6569L 6.3253 47.7804L 59.3173 47.7804L 59.3173 92.6569L 65.7072 92.6569L 65.7072 1.41146L 59.3173 1.41146L 59.3173 41.9154L 59.3243 41.9154ZM 115.292 0.0740634C 102.713 0.0740634 92.7917 4.24424 85.5293 12.5846C 78.2669 20.925 74.6395 32.3564 74.647 46.8789C 74.647 61.4394 78.2454 72.9345 85.4422 81.3641C 92.639 89.7937 102.548 94.0057 115.17 94C 127.82 94 137.747 89.788 144.951 81.3641C 152.153 72.924 155.753 61.4698 155.751 47.0014C 155.751 32.4884 152.174 21.037 145.018 12.6473C 137.863 4.25754 127.954 0.0664674 115.292 0.0740634L 115.292 0.0740634ZM 140.207 77.3905C 134.438 84.4766 126.092 88.0153 115.17 88.0068C 104.324 88.0068 96.0087 84.4376 90.2241 77.2993C 84.4395 70.161 81.5434 60.0613 81.5359 47C 81.5359 33.9796 84.4634 23.933 90.3183 16.8602C 96.1732 9.78741 104.498 6.24859 115.292 6.24384C 126.129 6.24384 134.434 9.74942 140.207 16.7605C 145.979 23.7716 148.865 33.8514 148.865 47C 148.865 60.1904 145.979 70.3206 140.207 77.3905ZM 439.098 79.7647C 438.917 79.2811 438.612 78.8553 438.214 78.5313C 437.883 78.2741 437.477 78.1372 437.06 78.1425L 404.398 78.1425L 404.398 52.405L 431.807 52.405C 432.22 52.4106 432.624 52.2884 432.965 52.0547C 433.357 51.7587 433.659 51.3576 433.837 50.8968C 434.107 50.2064 434.283 49.4818 434.36 48.7433C 434.603 46.5045 434.603 44.2454 434.36 42.0066C 434.286 41.2575 434.11 40.5223 433.837 39.8218C 433.656 39.3529 433.355 38.9411 432.965 38.6283C 432.632 38.3733 432.225 38.2344 431.807 38.2324L 404.398 38.2324L 404.398 15.9515L 436.785 15.9515C 437.192 15.9587 437.59 15.8223 437.909 15.5656C 438.286 15.2326 438.576 14.8103 438.752 14.3364C 439.018 13.6178 439.196 12.8687 439.281 12.1061C 439.405 10.9945 439.462 9.87626 439.451 8.75765C 439.464 7.59305 439.407 6.42874 439.281 5.27111C 439.193 4.50061 439.016 3.74336 438.752 3.01513C 438.59 2.53063 438.298 2.1012 437.909 1.77457C 437.577 1.54735 437.185 1.42812 436.785 1.43276L 391.498 1.43276C 390.078 1.38953 388.692 1.87728 387.605 2.80293C 387.033 3.38598 386.596 4.08926 386.323 4.86289C 386.05 5.63652 385.949 6.46154 386.026 7.27934L 386.026 86.8105C 385.95 87.628 386.051 88.4526 386.324 89.2259C 386.597 89.9992 387.034 90.7022 387.605 91.2854C 388.69 92.2165 390.076 92.7094 391.498 92.6697L 437.06 92.6697C 437.476 92.6682 437.88 92.532 438.214 92.281C 438.611 91.9523 438.916 91.5241 439.098 91.039C 439.363 90.3271 439.538 89.5838 439.618 88.8271C 439.747 87.6873 439.804 86.5404 439.791 85.3933C 439.804 84.2551 439.747 83.1173 439.618 81.9865C 439.538 81.2267 439.363 80.4802 439.098 79.7647ZM 472.843 1.34305L 448.319 1.34305L 448.319 92.6569L 470.054 92.6569C 485.532 92.6569 497.269 88.7308 505.266 80.8784C 513.264 73.0261 517.257 61.4423 517.248 46.127C 517.248 31.5104 513.468 20.3923 505.907 12.7726C 498.347 5.15293 487.326 1.34305 472.843 1.34305L 472.843 1.34305ZM 469.686 87.0354L 454.646 87.0354L 454.646 6.9617L 471.354 6.9617C 484.141 6.9617 493.836 10.2664 500.441 16.8758C 507.046 23.4701 510.349 33.3016 510.348 46.3705C 510.351 73.4814 496.797 87.0364 469.686 87.0354L 469.686 87.0354ZM 563.732 0C 551.148 0 541.223 4.17776 533.958 12.5333C 526.693 20.8889 523.061 32.3246 523.063 46.8405C 523.063 61.4162 526.663 72.9188 533.862 81.3485C 541.062 89.7781 550.976 93.9953 563.604 94C 576.277 94 586.21 89.7828 593.403 81.3485C 600.596 72.9141 604.199 61.4546 604.212 46.9701C 604.212 32.4428 600.632 20.9834 593.471 12.5917C 586.309 4.2001 576.397 0.00284848 563.732 0ZM 588.668 77.3791C 582.885 84.4671 574.53 88.0078 563.604 88.0011C 552.765 88.0011 544.446 84.431 538.647 77.2908C 532.849 70.1506 529.949 60.0437 529.949 46.9701C 529.949 33.9392 532.878 23.8851 538.736 16.8075C 544.593 9.72999 552.925 6.18975 563.732 6.1869C 574.572 6.1869 582.884 9.69389 588.668 16.7078C 594.451 23.7217 597.337 33.8091 597.323 46.9701C 597.323 60.1757 594.441 70.312 588.675 77.3791L 588.668 77.3791ZM 628.173 1.77891C 627.255 1.50353 626.314 1.31795 625.361 1.22483C 623.87 1.06348 622.371 0.990701 620.872 1.0069C 619.397 0.991907 617.923 1.06469 616.457 1.22483C 615.496 1.32111 614.545 1.50662 613.617 1.77891C 613.026 1.93338 612.491 2.25376 612.071 2.70323C 611.787 3.06277 611.631 3.5099 611.631 3.97082L 611.631 90.1375C 611.631 90.5989 611.786 91.0465 612.071 91.4065C 612.484 91.8467 613.008 92.1642 613.587 92.3251C 614.513 92.6032 615.462 92.794 616.423 92.8948C 619.398 93.1701 622.391 93.1701 625.366 92.8948C 626.318 92.7931 627.259 92.6023 628.177 92.3251C 628.753 92.1673 629.274 91.8491 629.681 91.4065C 629.974 91.0506 630.134 90.6012 630.132 90.1375L 630.132 3.97082C 630.134 3.50763 629.974 3.05868 629.681 2.70323C 629.274 2.25749 628.751 1.93713 628.173 1.77891ZM 233.442 81.2815L 211.604 1.41146L 204.692 1.41146L 182.855 81.2815L 161.63 1.41146L 154.984 1.41146L 179.935 92.6569L 185.277 92.6569L 208.114 8.02988L 208.184 8.02988L 231.015 92.6569L 236.357 92.6569L 261.305 1.41146L 254.657 1.41146L 233.442 81.2815ZM 376.237 1.18215C 374.894 1.04637 373.544 0.987819 372.193 1.0069C 369.989 1.0069 368.276 1.07105 367.076 1.18215C 366.111 1.24579 365.163 1.46207 364.264 1.82307C 363.681 2.06272 363.208 2.51488 362.937 3.09058C 362.684 3.71506 362.495 4.36477 362.375 5.02901L 346.458 74.6873L 346.317 74.6873L 329.214 5.30961C 329.077 4.52106 328.817 3.75982 328.442 3.05503C 328.073 2.45491 327.519 1.99483 326.866 1.74614C 325.872 1.3845 324.829 1.18173 323.774 1.14511C 322.44 1.05111 320.656 1.00264 318.41 1.00264C 316.302 1.00264 314.629 1.0668 313.361 1.17789C 312.343 1.24721 311.339 1.46294 310.381 1.81873C 309.736 2.05714 309.193 2.51792 308.849 3.12049C 308.497 3.8075 308.247 4.54382 308.108 5.30527L 291.568 74.6873L 291.495 74.6873L 275.581 4.81534C 275.493 4.1008 275.303 3.40293 275.018 2.74313C 274.741 2.20243 274.265 1.79339 273.693 1.60366C 273.38 1.4977 273.06 1.41399 272.736 1.35305L 268.082 1.35305L 261.794 24.534L 277.61 87.9484C 277.827 88.8978 278.181 89.8097 278.66 90.6545C 279.147 91.3851 279.862 91.9292 280.69 92.1998C 281.927 92.6102 283.211 92.8529 284.511 92.9218C 286.127 93.0301 288.295 93.0871 290.996 93.0871C 293.571 93.0871 295.641 93.032 297.206 92.9218C 298.476 92.8555 299.729 92.6017 300.925 92.1684C 301.74 91.8685 302.439 91.312 302.919 90.5804C 303.39 89.7642 303.723 88.8736 303.903 87.9456L 317.645 30.1213L 317.786 30.1213L 332.295 87.9456C 332.469 88.8977 332.801 89.8127 333.279 90.6516C 333.769 91.3835 334.488 91.9276 335.32 92.1969C 336.556 92.6079 337.84 92.8507 339.139 92.919C 340.751 93.0273 342.885 93.0842 345.551 93.0842C 347.941 93.0842 350.656 93.0273 352.201 92.919C 353.487 92.839 354.758 92.5964 355.984 92.1969C 356.858 91.9218 357.629 91.3826 358.193 90.6516C 358.739 89.8307 359.127 88.9125 359.336 87.9456L 378.662 8.55119C 379.013 7.19887 379.261 5.82143 379.406 4.43085C 379.466 4.02155 379.437 3.60388 379.322 3.20689C 379.207 2.80991 379.007 2.44312 378.738 2.1321C 378.031 1.5446 377.152 1.21062 376.237 1.18215L 376.237 1.18215ZM 636.926 4.4664L 636.926 13.5602C 636.931 14.3664 637.252 15.1374 637.817 15.7052C 638.381 16.273 639.145 16.5914 639.941 16.591L 657.119 16.591L 657.119 90.1304C 657.12 90.5945 657.281 91.0436 657.575 91.3993C 657.986 91.8414 658.509 92.1594 659.087 92.3179C 660.011 92.5986 660.96 92.7894 661.92 92.8877C 664.881 93.163 667.86 93.163 670.821 92.8877C 671.786 92.7866 672.739 92.5959 673.67 92.3179C 674.245 92.1576 674.765 91.8398 675.174 91.3993C 675.464 91.0415 675.622 90.5931 675.622 90.1304L 675.622 16.591L 695.986 16.591L 700 1.43702L 639.941 1.43702C 639.145 1.43587 638.381 1.75389 637.816 2.32152C 637.251 2.88915 636.931 3.66027 636.926 4.4664L 636.926 4.4664Z"/>
</defs>
</svg>
